<svg viewBox="19.999 19.938 160.002 160.063" height="200" width="200" xmlns="http://www.w3.org/2000/svg" role="presentation" aria-hidden="true" aria-label="" fill="#254080"><path d="M176.2 169.8a3.8 3.8 0 0 1-3.8-3.8V43H27.6v123a3.8 3.8 0 1 1-7.6 0V39a3.8 3.8 0 0 1 3.8-3.8h152.4A3.8 3.8 0 0 1 180 39v127a3.8 3.8 0 0 1-3.8 3.8z"/><path d="M176.2 78.4H23.8a3.8 3.8 0 1 1 0-7.6h152.4a3.8 3.8 0 1 1 0 7.6zM100 58a3.8 3.8 0 0 1-3.8-3.7V23.8a3.8 3.8 0 1 1 7.6 0v30.5A3.8 3.8 0 0 1 100 58zm-25.4 0a3.8 3.8 0 0 1-3.8-3.7V23.8a3.8 3.8 0 1 1 7.6 0v30.5a3.8 3.8 0 0 1-3.8 3.8zm50.8 0a3.8 3.8 0 0 1-3.8-3.7V23.8a3.8 3.8 0 1 1 7.6 0v30.5a3.8 3.8 0 0 1-3.8 3.8zm-76.2 0a3.8 3.8 0 0 1-3.8-3.7V23.8a3.8 3.8 0 1 1 7.6 0v30.5a3.8 3.8 0 0 1-3.8 3.8zm101.6 0a3.8 3.8 0 0 1-3.8-3.7V23.8a3.8 3.8 0 1 1 7.6 0v30.5a3.8 3.8 0 0 1-3.8 3.8zM34 180a14 14 0 0 1-14-14 3.8 3.8 0 1 1 7.6 0 6.4 6.4 0 0 0 6.4 6.4 3.8 3.8 0 1 1 0 7.6zm132 0a3.8 3.8 0 1 1 0-7.6 6.4 6.4 0 0 0 6.4-6.4 3.8 3.8 0 1 1 7.6 0 14 14 0 0 1-14 14z"/><path d="M166 180H34a3.8 3.8 0 1 1 0-7.6h132a3.8 3.8 0 1 1 0 7.6zM49.2 119a3.8 3.8 0 0 1-3.8-3.8V95a3.8 3.8 0 1 1 7.6 0v20.3a3.8 3.8 0 0 1-3.8 3.8zm20.3 0a3.8 3.8 0 0 1-3.8-3.8V95a3.8 3.8 0 1 1 7.6 0v20.3a3.8 3.8 0 0 1-3.8 3.8z"/><path d="M69.5 98.7H49.2a3.8 3.8 0 1 1 0-7.6h20.3a3.8 3.8 0 0 1 0 7.6zm0 20.3H49.2a3.8 3.8 0 1 1 0-7.6h20.3a3.8 3.8 0 0 1 0 7.6zm-20.3 40.7a3.8 3.8 0 0 1-3.8-3.8v-20.3a3.8 3.8 0 1 1 7.6 0v20.3a3.8 3.8 0 0 1-3.8 3.8zm20.3 0a3.8 3.8 0 0 1-3.8-3.8v-20.3a3.8 3.8 0 1 1 7.6 0v20.3a3.8 3.8 0 0 1-3.8 3.8z"/><path d="M69.5 139.4H49.2a3.8 3.8 0 1 1 0-7.7h20.3a3.8 3.8 0 0 1 0 7.7zm0 20.3H49.2a3.8 3.8 0 1 1 0-7.6h20.3a3.8 3.8 0 0 1 0 7.6zM89.8 119a3.8 3.8 0 0 1-3.8-3.8V95a3.8 3.8 0 1 1 7.7 0v20.3a3.8 3.8 0 0 1-3.9 3.8zm20.4 0a3.8 3.8 0 0 1-3.9-3.8V95a3.8 3.8 0 1 1 7.7 0v20.3a3.8 3.8 0 0 1-3.8 3.8z"/><path d="M110.2 98.7H89.8a3.8 3.8 0 1 1 0-7.6h20.4a3.8 3.8 0 1 1 0 7.6zm0 20.3H89.8a3.8 3.8 0 1 1 0-7.6h20.4a3.8 3.8 0 1 1 0 7.6zm-20.4 40.7a3.8 3.8 0 0 1-3.8-3.8v-20.3a3.8 3.8 0 1 1 7.7 0v20.3a3.8 3.8 0 0 1-3.9 3.8zm20.4 0a3.8 3.8 0 0 1-3.9-3.8v-20.3a3.8 3.8 0 1 1 7.7 0v20.3a3.8 3.8 0 0 1-3.8 3.8z"/><path d="M110.2 139.4H89.8a3.8 3.8 0 1 1 0-7.7h20.4a3.8 3.8 0 1 1 0 7.7zm0 20.3H89.8a3.8 3.8 0 1 1 0-7.6h20.4a3.8 3.8 0 1 1 0 7.6zm20.3-40.7a3.8 3.8 0 0 1-3.8-3.8V95a3.8 3.8 0 1 1 7.6 0v20.3a3.8 3.8 0 0 1-3.8 3.8zm20.3 0a3.8 3.8 0 0 1-3.8-3.8V95a3.8 3.8 0 1 1 7.6 0v20.3a3.8 3.8 0 0 1-3.8 3.8z"/><path d="M150.8 98.7h-20.3a3.8 3.8 0 1 1 0-7.6h20.3a3.8 3.8 0 1 1 0 7.6zm0 20.3h-20.3a3.8 3.8 0 1 1 0-7.6h20.3a3.8 3.8 0 1 1 0 7.6zm-20.3 40.7a3.8 3.8 0 0 1-3.8-3.8v-20.3a3.8 3.8 0 1 1 7.6 0v20.3a3.8 3.8 0 0 1-3.8 3.8zm20.3 0a3.8 3.8 0 0 1-3.8-3.8v-20.3a3.8 3.8 0 1 1 7.6 0v20.3a3.8 3.8 0 0 1-3.8 3.8z"/><path d="M150.8 139.4h-20.3a3.8 3.8 0 1 1 0-7.7h20.3a3.8 3.8 0 1 1 0 7.7zm0 20.3h-20.3a3.8 3.8 0 1 1 0-7.6h20.3a3.8 3.8 0 1 1 0 7.6z"/></svg>