<svg xmlns="http://www.w3.org/2000/svg" width="100" height="100" fill="#ffbd59" viewBox="0 0 1080 1080"><path d="M1018 835 895 710c-26-26-60-39-95-38l-1-1-102-103a345 345 0 0 0 52-180A350 350 0 0 0 268 58 348 348 0 0 0 73 250a351 351 0 0 0 502 438l102 104 1 1c-2 34 10 69 36 95l123 125a127 127 0 0 0 181-178zM394 692A306 306 0 0 1 90 382 306 306 0 0 1 400 77a306 306 0 0 1 305 310 306 306 0 0 1-311 305zm297 51-79-80a359 359 0 0 0 60-59l78 80a125 125 0 0 0-59 59zm295 241a83 83 0 0 1-118-1L745 858a83 83 0 0 1 119-117l123 125c32 33 31 86-1 118z"/><path d="M578 569a256 256 0 0 1-365-3 256 256 0 0 1 3-365 256 256 0 0 1 365 3 256 256 0 0 1-3 365zM247 232a212 212 0 0 0-2 303 212 212 0 0 0 302 2 212 212 0 0 0 3-302 212 212 0 0 0-303-3z"/><path d="M395 196c-12 0-22 10-22 22v25c-9 2-19 7-28 13a79 79 0 0 0-31 54c-6 51 30 86 74 92 112 15 1 145-31 39-10-34-42-18-42 4 1 28 18 54 34 64l26 13v23c0 12 10 22 22 22 6 0 12-3 16-7s6-9 6-16v-18l6-4c3-4 73-36 50-107-28-82-118-30-119-94 0-38 58-70 79 1 17 56 78-18 11-66-8-6-18-11-29-14v-24c0-12-10-22-22-22z"/></svg>